<svg xmlns="http://www.w3.org/2000/svg" viewBox="0 0 166.04 45.39"><title>oskal</title><g id="Layer_2" data-name="Layer 2"><g id="Layer_1-2" data-name="Layer 1"><path d="M0,26.33a21.15,21.15,0,0,1,1.25-7.52,18.74,18.74,0,0,1,3.94-6.19,16.8,16.8,0,0,1,5.49-4.05A15.71,15.71,0,0,1,17.2,7.21a15.73,15.73,0,0,1,6.53,1.36,16.87,16.87,0,0,1,5.49,4.05,18.58,18.58,0,0,1,3.9,6.15,21.42,21.42,0,0,1,1.24,7.56,21.42,21.42,0,0,1-1.24,7.56A18.53,18.53,0,0,1,29.22,40a16.53,16.53,0,0,1-5.46,4,15.93,15.93,0,0,1-6.56,1.35A15.93,15.93,0,0,1,10.65,44a16.5,16.5,0,0,1-5.46-4,18.72,18.72,0,0,1-3.94-6.18A21.15,21.15,0,0,1,0,26.33m9,0Q9,37.44,10.78,41t6.42,3.56q4.61,0,6.38-3.53t1.77-14.7q0-11.17-1.77-14.71T17.2,8.09q-4.64,0-6.42,3.56T9,26.33"/><path d="M38.72,44.65V34.27h.74c.95.9,2.6,4.2,4.94,6.64a10.81,10.81,0,0,0,8,3.65,7.22,7.22,0,0,0,5.21-2,6.71,6.71,0,0,0,2.09-5,7,7,0,0,0-.77-3.45,6.83,6.83,0,0,0-2.55-2.44,16.71,16.71,0,0,0-4.64-1.41q-1.95-.4-3-.67-5.47-1.36-7.93-4a10.15,10.15,0,0,1-2.47-7.17,10.69,10.69,0,0,1,3.26-7.93,11.08,11.08,0,0,1,8.1-3.21,12,12,0,0,1,2.92.36,14.8,14.8,0,0,1,2.87,1.05c.34.18.83.45,1.45.83a6.35,6.35,0,0,0,2.69,1,1.35,1.35,0,0,0,1.08-.44,3.85,3.85,0,0,0,.62-1.58h.82v8.84h-.82c-.77-1.2-2.1-4-4-6.07a9,9,0,0,0-6.76-3,7.58,7.58,0,0,0-5.28,1.87,6.09,6.09,0,0,0-2.07,4.75,5.2,5.2,0,0,0,.67,2.7,5.91,5.91,0,0,0,2.07,2,17.23,17.23,0,0,0,4.72,1.39c1.09.21,1.95.39,2.55.53q6.42,1.42,8.93,4.09t2.51,7.9a11.62,11.62,0,0,1-3.35,8.69,12.08,12.08,0,0,1-8.84,3.28A19.63,19.63,0,0,1,45.23,44q-3.61-1.43-3.75-1.43a1.63,1.63,0,0,0-1.32.52,2.59,2.59,0,0,0-.5,1.59Z"/><path d="M109.52,32.83l-2.31,6a10.71,10.71,0,0,0-.47,1.52,6.36,6.36,0,0,0-.16,1.33,1.4,1.4,0,0,0,.77,1.29,8.69,8.69,0,0,0,2.88.71v.83H100.3v-.83a5.72,5.72,0,0,0,3.59-1.19,10.92,10.92,0,0,0,2.42-4.33l11.3-31h.71l14.38,36.47h3.48v.83H122.68v-.83h1.11l-4-10.85Zm.28-.83h9.66l-4.83-13.28Z"/><path d="M134.63,44.51v-.83H139V8.92h-1.19V8.09h10.84v.83h-1.3V43.68h5.32q6.34,0,9.38-2.77a10.74,10.74,0,0,0,3.1-5.44H166v9Z"/><polygon points="78.58 30.38 78.56 30.38 78.56 24.01 78.58 24.03 78.58 8.92 79.72 8.92 79.72 8.09 69.05 8.09 69.05 8.92 70.23 8.92 70.23 43.68 69.05 43.68 69.05 44.51 79.72 44.51 79.72 43.68 78.58 43.68 78.58 30.38"/><path d="M101.51,5.06l-6.17,5.87-8.56,8.11.67.91L102.31,6a22.72,22.72,0,0,1,5.38-4A11.42,11.42,0,0,1,112.82.77a4.78,4.78,0,0,1,.48,0,3.53,3.53,0,0,0,.47,0V0H102V.83a5.07,5.07,0,0,1,1,.32,1.09,1.09,0,0,1,.67,1,2,2,0,0,1-.45,1.12,12.46,12.46,0,0,1-1.69,1.76"/><polygon points="92.55 44.51 106.97 44.51 106.97 43.68 103.15 43.68 88.71 21.8 86.84 18.99 80.91 24.64 81.49 25.56 81.5 25.55 93.14 43.68 92.55 43.68 92.55 44.51"/></g></g></svg>